<?xml version="1.0" encoding="UTF-8"?>
<svg xmlns="http://www.w3.org/2000/svg" width="1440" height="900" viewBox="0 0 1440 900">
<title>Appraisal + Comps</title>
<style>
  .bg{fill:#FFFFFF}
  .subtle{fill:#F7FAFC}
  .muted{fill:#EDF2F7}
  .border{stroke:#E2E8F0;stroke-width:1}
  .border2{stroke:#CBD5E0;stroke-width:1}
  .t{font-family: Inter, Segoe UI, Arial, sans-serif; fill:#1A202C}
  .tm{fill:#4A5568}
  .ts{fill:#718096}
  .h1{font-size:22px;font-weight:700}
  .h2{font-size:16px;font-weight:700}
  .b{font-size:13px;font-weight:600}
  .p{font-size:12px;font-weight:500}
  .mono{font-family: ui-monospace, SFMono-Regular, Menlo, Consolas, monospace; font-size:11px}
  .chip{fill:#EDF2F7; stroke:#E2E8F0; stroke-width:1}
  .chipText{font-size:11px;font-weight:700; fill:#4A5568}
  .primaryBtn{fill:#1A365D}
  .primaryBtnText{font-size:12px;font-weight:700; fill:#fff}
  .ghostBtn{fill:#F7FAFC; stroke:#E2E8F0; stroke-width:1}
  .dangerBtn{fill:#9B2C2C}
  .dangerText{fill:#fff;font-weight:800;font-size:12px}
  .callout{fill:#F7FAFC; stroke:#CBD5E0; stroke-width:1}
  .kbd{fill:#fff; stroke:#CBD5E0; stroke-width:1}
  .focus{fill:none; stroke:#1A365D; stroke-width:2; stroke-dasharray:6 4}
</style>
<rect x="0" y="0" width="1440" height="900" class="bg" /><rect x="0" y="0" width="220" height="900" class="subtle" /><rect x="0" y="0" width="220" height="900" fill="none" class="border"/><text x="18" y="32" class="t h2" >LotView</text><rect x="18" y="48" width="164" height="22" class="chip" /> <text x="28" y="63" class="t chipText" >Dealer: Olympic Auto</text><text x="18" y="92" class="t b tm" >Inbox</text><text x="18" y="118" class="t b tm" >Competitive</text><text x="18" y="144" class="t b tm" >Appraisals</text><text x="18" y="170" class="t b tm" >Automation</text><rect x="220" y="0" width="1220" height="62" class="bg" /><rect x="220" y="0" width="1220" height="62" fill="none" class="border"/><text x="242" y="28" class="t h1" >Appraisal + Comps</text><text x="242" y="48" class="t p ts" >VIN decode confidence, exact-trim comps by default, explainable adjustments.</text><rect x="1140" y="18" width="156.8" height="22" class="chip" /> <text x="1150" y="33" class="t chipText" >Canada-only sources</text><rect x="1258" y="16" width="160" height="30" class="dangerBtn" rx="8"/><text x="1270" y="36" class="t dangerText" >KILL SWITCH</text><rect x="236" y="78" width="520" height="164" class="bg" /><rect x="236" y="78" width="520" height="164" fill="none" class="border"/><text x="252" y="106" class="t h2" >VIN decode</text><rect x="252" y="124" width="488" height="36" class="subtle" rx="10"/><text x="266" y="148" class="t p ts" >Enter VIN…</text><rect x="620" y="128" width="90" height="30" class="primaryBtn" rx="8"/><text x="632" y="148" class="t primaryBtnText" >Decode</text><rect x="252" y="172" width="135.2" height="22" class="chip" /> <text x="262" y="187" class="t chipText" >Confidence: High</text><text x="252" y="200" class="t p" >Decoded: 2020 Toyota RAV4 XLE AWD · 2.5L</text><text x="252" y="222" class="t p ts" >Options: Heated seats, Moonroof (partial) · Explain →</text><rect x="772" y="78" width="652" height="164" class="bg" /><rect x="772" y="78" width="652" height="164" fill="none" class="border"/><text x="788" y="106" class="t h2" >Search controls</text><rect x="788" y="124" width="128" height="22" class="chip" /> <text x="798" y="139" class="t chipText" >Radius: 0–250km</text><rect x="922" y="124" width="164" height="22" class="chip" /> <text x="932" y="139" class="t chipText" >Exact trim (default)</text><rect x="1092" y="124" width="120.8" height="22" class="chip" /> <text x="1102" y="139" class="t chipText" >Near-trim: OFF</text><text x="788" y="164" class="t p ts" >Adjustments apply on top of comps (mileage tolerance ignored by spec).</text><rect x="788" y="186" width="150" height="30" class="ghostBtn" rx="8"/><text x="800" y="206" class="t b tm" >Add adjustment</text><rect x="1248" y="186" width="140" height="30" class="primaryBtn" rx="8"/><text x="1260" y="206" class="t primaryBtnText" >Fetch comps</text><rect x="236" y="258" width="1188" height="626" class="bg" /><rect x="236" y="258" width="1188" height="626" fill="none" class="border"/><text x="252" y="286" class="t h2" >Comps</text><text x="252" y="310" class="t p ts" >Why these comps? Exact-trim match first; near-trim optional with labeling.</text><rect x="252" y="332" width="1156" height="48" class="muted" rx="10"/><rect x="252" y="386" width="1000" height="10" class="muted" rx="5"/><rect x="252" y="396" width="1156" height="48" class="muted" rx="10"/><rect x="252" y="450" width="1000" height="10" class="muted" rx="5"/><rect x="252" y="460" width="1156" height="48" class="muted" rx="10"/><rect x="252" y="514" width="1000" height="10" class="muted" rx="5"/><rect x="252" y="524" width="1156" height="48" class="muted" rx="10"/><rect x="252" y="578" width="1000" height="10" class="muted" rx="5"/><rect x="252" y="588" width="1156" height="48" class="muted" rx="10"/><rect x="252" y="642" width="1000" height="10" class="muted" rx="5"/><rect x="252" y="652" width="1156" height="48" class="muted" rx="10"/><rect x="252" y="706" width="1000" height="10" class="muted" rx="5"/><rect x="252" y="716" width="1156" height="48" class="muted" rx="10"/><rect x="252" y="770" width="1000" height="10" class="muted" rx="5"/><rect x="252" y="780" width="1156" height="48" class="muted" rx="10"/><rect x="252" y="834" width="1000" height="10" class="muted" rx="5"/><text x="252" y="344" class="t b tm" >Loading comps…</text></svg>
