<?xml version="1.0" encoding="UTF-8"?>
<svg xmlns="http://www.w3.org/2000/svg" width="1440" height="900" viewBox="0 0 1440 900">
<title>Craigslist Assist — Review</title>
<style>
  .bg{fill:#FFFFFF}
  .subtle{fill:#F7FAFC}
  .muted{fill:#EDF2F7}
  .border{stroke:#E2E8F0;stroke-width:1}
  .border2{stroke:#CBD5E0;stroke-width:1}
  .t{font-family: Inter, Segoe UI, Arial, sans-serif; fill:#1A202C}
  .tm{fill:#4A5568}
  .ts{fill:#718096}
  .h1{font-size:22px;font-weight:700}
  .h2{font-size:16px;font-weight:700}
  .b{font-size:13px;font-weight:600}
  .p{font-size:12px;font-weight:500}
  .mono{font-family: ui-monospace, SFMono-Regular, Menlo, Consolas, monospace; font-size:11px}
  .chip{fill:#EDF2F7; stroke:#E2E8F0; stroke-width:1}
  .chipText{font-size:11px;font-weight:700; fill:#4A5568}
  .primaryBtn{fill:#1A365D}
  .primaryBtnText{font-size:12px;font-weight:700; fill:#fff}
  .ghostBtn{fill:#F7FAFC; stroke:#E2E8F0; stroke-width:1}
  .dangerBtn{fill:#9B2C2C}
  .dangerText{fill:#fff;font-weight:800;font-size:12px}
  .callout{fill:#F7FAFC; stroke:#CBD5E0; stroke-width:1}
  .kbd{fill:#fff; stroke:#CBD5E0; stroke-width:1}
  .focus{fill:none; stroke:#1A365D; stroke-width:2; stroke-dasharray:6 4}
</style>
<rect x="0" y="0" width="1440" height="900" class="bg" /><rect x="0" y="0" width="220" height="900" class="subtle" /><rect x="0" y="0" width="220" height="900" fill="none" class="border"/><text x="18" y="32" class="t h2" >LotView</text><rect x="18" y="48" width="164" height="22" class="chip" /> <text x="28" y="63" class="t chipText" >Dealer: Olympic Auto</text><text x="18" y="92" class="t b tm" >Inbox</text><text x="18" y="118" class="t b tm" >Competitive</text><text x="18" y="144" class="t b tm" >Appraisals</text><text x="18" y="170" class="t b tm" >Automation</text><rect x="220" y="0" width="1220" height="62" class="bg" /><rect x="220" y="0" width="1220" height="62" fill="none" class="border"/><text x="242" y="28" class="t h1" >Craigslist Assist — Review</text><text x="242" y="48" class="t p ts" >Prefill preview + validation. LotView will not click Publish.</text><rect x="1140" y="18" width="164" height="22" class="chip" /> <text x="1150" y="33" class="t chipText" >Extension: Connected</text><rect x="1258" y="16" width="160" height="30" class="dangerBtn" rx="8"/><text x="1270" y="36" class="t dangerText" >KILL SWITCH</text><rect x="236" y="78" width="820" height="806" class="bg" /><rect x="236" y="78" width="820" height="806" fill="none" class="border"/><text x="252" y="106" class="t h2" >Prefill preview</text><rect x="252" y="126" width="788" height="92" class="subtle" rx="12"/><text x="268" y="154" class="t p" >Title: 2019 Ford F-150 XLT — Clean, Local, Ready</text><text x="268" y="176" class="t p" >Price: $38,900 · Category: cars+trucks by dealer</text><text x="268" y="198" class="t p ts" >Region: Surrey BC · Posting area: Vancouver / Lower Mainland</text><rect x="252" y="234" width="788" height="210" class="subtle" rx="12"/><text x="268" y="264" class="t b" >Photos (drag to reorder)</text><rect x="268" y="278" width="172" height="62" class="bg" /><rect x="268" y="278" width="172" height="62" fill="none" class="border"/><text x="278" y="314" class="t p ts" >Photo 1</text><rect x="456" y="278" width="172" height="62" class="bg" /><rect x="456" y="278" width="172" height="62" fill="none" class="border"/><text x="466" y="314" class="t p ts" >Photo 2</text><rect x="644" y="278" width="172" height="62" class="bg" /><rect x="644" y="278" width="172" height="62" fill="none" class="border"/><text x="654" y="314" class="t p ts" >Photo 3</text><rect x="832" y="278" width="172" height="62" class="bg" /><rect x="832" y="278" width="172" height="62" fill="none" class="border"/><text x="842" y="314" class="t p ts" >Photo 4</text><rect x="268" y="356" width="172" height="62" class="bg" /><rect x="268" y="356" width="172" height="62" fill="none" class="border"/><text x="278" y="392" class="t p ts" >Photo 5</text><rect x="456" y="356" width="172" height="62" class="bg" /><rect x="456" y="356" width="172" height="62" fill="none" class="border"/><text x="466" y="392" class="t p ts" >Photo 6</text><rect x="644" y="356" width="172" height="62" class="bg" /><rect x="644" y="356" width="172" height="62" fill="none" class="border"/><text x="654" y="392" class="t p ts" >Photo 7</text><rect x="832" y="356" width="172" height="62" class="bg" /><rect x="832" y="356" width="172" height="62" fill="none" class="border"/><text x="842" y="392" class="t p ts" >Photo 8</text><rect x="252" y="460" width="788" height="408" class="subtle" rx="12"/><text x="268" y="490" class="t b" >Description preview</text><text x="268" y="514" class="t p" >• Sharp unit. Clean history (if known).</text><text x="268" y="534" class="t p" >• Key features pulled from VDP (no hype, no promises).</text><text x="268" y="554" class="t p" >• CTA: Call/text to book a time today.</text><text x="268" y="584" class="t p ts" >(Full text in editor on Craigslist form)</text><rect x="1072" y="78" width="352" height="806" class="bg" /><rect x="1072" y="78" width="352" height="806" fill="none" class="border"/><text x="1088" y="106" class="t h2" >Publish-ready checklist</text><text x="1088" y="130" class="t p ts" >LotView will not click Publish. You review then publish.</text><rect x="1088" y="154" width="320" height="210" class="subtle" rx="12"/><text x="1100" y="196" class="t h2" >Validation blocked</text><text x="1100" y="222" class="t p ts" >Login/captcha/selector drift detected. Automation is paused.</text><rect x="1100" y="248" width="140" height="30" class="primaryBtn" rx="8"/><text x="1112" y="268" class="t primaryBtnText" >Retry detect</text><rect x="1252" y="248" width="160" height="30" class="ghostBtn" rx="8"/><text x="1264" y="268" class="t b tm" >View diagnostics</text><rect x="1100" y="288" width="113.60000000000001" height="22" class="chip" /> <text x="1110" y="303" class="t chipText" >State: PAUSED</text></svg>
