<?xml version="1.0" encoding="UTF-8"?>
<svg xmlns="http://www.w3.org/2000/svg" width="1440" height="900" viewBox="0 0 1440 900">
<title>FB Marketplace Inbox</title>
<style>
  .bg{fill:#FFFFFF}
  .subtle{fill:#F7FAFC}
  .muted{fill:#EDF2F7}
  .border{stroke:#E2E8F0;stroke-width:1}
  .border2{stroke:#CBD5E0;stroke-width:1}
  .t{font-family: Inter, Segoe UI, Arial, sans-serif; fill:#1A202C}
  .tm{fill:#4A5568}
  .ts{fill:#718096}
  .h1{font-size:22px;font-weight:700}
  .h2{font-size:16px;font-weight:700}
  .b{font-size:13px;font-weight:600}
  .p{font-size:12px;font-weight:500}
  .mono{font-family: ui-monospace, SFMono-Regular, Menlo, Consolas, monospace; font-size:11px}
  .chip{fill:#EDF2F7; stroke:#E2E8F0; stroke-width:1}
  .chipText{font-size:11px;font-weight:700; fill:#4A5568}
  .primaryBtn{fill:#1A365D}
  .primaryBtnText{font-size:12px;font-weight:700; fill:#fff}
  .ghostBtn{fill:#F7FAFC; stroke:#E2E8F0; stroke-width:1}
  .dangerBtn{fill:#9B2C2C}
  .dangerText{fill:#fff;font-weight:800;font-size:12px}
  .callout{fill:#F7FAFC; stroke:#CBD5E0; stroke-width:1}
  .kbd{fill:#fff; stroke:#CBD5E0; stroke-width:1}
  .focus{fill:none; stroke:#1A365D; stroke-width:2; stroke-dasharray:6 4}
</style>
<rect x="0" y="0" width="1440" height="900" class="bg" /><rect x="0" y="0" width="220" height="900" class="subtle" /><rect x="0" y="0" width="220" height="900" fill="none" class="border"/><text x="18" y="32" class="t h2" >LotView</text><rect x="18" y="48" width="164" height="22" class="chip" /> <text x="28" y="63" class="t chipText" >Dealer: Olympic Auto</text><text x="18" y="92" class="t b tm" >Inbox</text><text x="18" y="118" class="t b tm" >Competitive</text><text x="18" y="144" class="t b tm" >Appraisals</text><text x="18" y="170" class="t b tm" >Automation</text><rect x="220" y="0" width="1220" height="62" class="bg" /><rect x="220" y="0" width="1220" height="62" fill="none" class="border"/><text x="242" y="28" class="t h1" >FB Marketplace Inbox</text><text x="242" y="48" class="t p ts" >Fast replies with guardrails. Auto-send default ON; everything is logged.</text><rect x="1140" y="18" width="156.8" height="22" class="chip" /> <text x="1150" y="33" class="t chipText" >Automation: ON (FB)</text><rect x="1258" y="16" width="160" height="30" class="dangerBtn" rx="8"/><text x="1270" y="36" class="t dangerText" >KILL SWITCH</text><rect x="236" y="78" width="340" height="806" class="bg" /><rect x="236" y="78" width="340" height="806" fill="none" class="border"/><text x="250" y="104" class="t h2" >Conversations</text><rect x="250" y="114" width="113.60000000000001" height="22" class="chip" /> <text x="260" y="129" class="t chipText" >Unassigned: 4</text><rect x="366" y="114" width="99.2" height="22" class="chip" /> <text x="376" y="129" class="t chipText" >SLA risk: 2</text><rect x="592" y="78" width="512" height="806" class="bg" /><rect x="592" y="78" width="512" height="806" fill="none" class="border"/><text x="606" y="104" class="t h2" >Transcript</text><rect x="1120" y="78" width="320" height="806" class="bg" /><rect x="1120" y="78" width="320" height="806" fill="none" class="border"/><text x="1134" y="104" class="t h2" >Vehicle + Controls</text><rect x="246" y="152" width="320" height="66" class="subtle" rx="10"/><text x="258" y="174" class="t b" >Sam P. — “Is it available?”</text><text x="258" y="194" class="t p ts" >2019 Ford F-150 XLT · 68k km</text><rect x="436" y="166" width="58" height="22" class="chip" /> <text x="446" y="181" class="t chipText" >AUTO</text><text x="436" y="206" class="t mono ts" >2m</text><rect x="246" y="230" width="320" height="66" class="subtle" rx="10"/><text x="258" y="252" class="t b" >Lead 2 — New msg</text><text x="258" y="272" class="t p ts" >Vehicle not mapped</text><rect x="436" y="244" width="58" height="22" class="chip" /> <text x="446" y="259" class="t chipText" >NEEDS</text><text x="436" y="284" class="t mono ts" >11m</text><rect x="246" y="308" width="320" height="66" class="subtle" rx="10"/><text x="258" y="330" class="t b" >Lead 3 — New msg</text><text x="258" y="350" class="t p ts" >Vehicle not mapped</text><rect x="436" y="322" width="58" height="22" class="chip" /> <text x="446" y="337" class="t chipText" >NEEDS</text><text x="436" y="362" class="t mono ts" >12m</text><rect x="246" y="386" width="320" height="66" class="subtle" rx="10"/><text x="258" y="408" class="t b" >Lead 4 — New msg</text><text x="258" y="428" class="t p ts" >Vehicle not mapped</text><rect x="436" y="400" width="58" height="22" class="chip" /> <text x="446" y="415" class="t chipText" >NEEDS</text><text x="436" y="440" class="t mono ts" >13m</text><rect x="246" y="464" width="320" height="66" class="subtle" rx="10"/><text x="258" y="486" class="t b" >Lead 5 — New msg</text><text x="258" y="506" class="t p ts" >Vehicle not mapped</text><rect x="436" y="478" width="58" height="22" class="chip" /> <text x="446" y="493" class="t chipText" >NEEDS</text><text x="436" y="518" class="t mono ts" >14m</text><rect x="246" y="542" width="320" height="66" class="subtle" rx="10"/><text x="258" y="564" class="t b" >Lead 6 — New msg</text><text x="258" y="584" class="t p ts" >Vehicle not mapped</text><rect x="436" y="556" width="58" height="22" class="chip" /> <text x="446" y="571" class="t chipText" >NEEDS</text><text x="436" y="596" class="t mono ts" >15m</text><rect x="246" y="620" width="320" height="66" class="subtle" rx="10"/><text x="258" y="642" class="t b" >Lead 7 — New msg</text><text x="258" y="662" class="t p ts" >Vehicle not mapped</text><rect x="436" y="634" width="58" height="22" class="chip" /> <text x="446" y="649" class="t chipText" >NEEDS</text><text x="436" y="674" class="t mono ts" >16m</text><rect x="604" y="142" width="488" height="46" class="callout" rx="10"/><text x="616" y="162" class="t b" >Thread status: Auto-send ON · Last inbound 2m ago · No policy blocks</text><text x="616" y="180" class="t p ts" >Escalation: none · Anti-loop: OK (0/2 auto turns used)</text><rect x="616" y="252" width="464" height="220" class="subtle" rx="12"/><text x="640" y="292" class="t h2" >Can’t load messages</text><text x="640" y="320" class="t p ts" >We paused auto-send for safety. Reconnect the extension tab or retry.</text><rect x="640" y="346" width="110" height="30" class="primaryBtn" rx="8"/><text x="652" y="366" class="t primaryBtnText" >Retry</text><rect x="760" y="346" width="160" height="30" class="ghostBtn" rx="8"/><text x="772" y="366" class="t b tm" >View diagnostics</text><rect x="640" y="388" width="120.8" height="22" class="chip" /> <text x="650" y="403" class="t chipText" >State: BLOCKED</text><rect x="1134" y="142" width="292" height="116" class="subtle" rx="12"/><text x="1148" y="168" class="t b" >Vehicle</text><text x="1148" y="188" class="t p" >2019 Ford F-150 XLT</text><text x="1148" y="206" class="t p ts" >Stock: F150-19-220 · 68,104 km</text><text x="1148" y="226" class="t mono ts" >Mapping confidence: High</text><rect x="1134" y="274" width="292" height="180" class="subtle" rx="12"/><text x="1148" y="300" class="t b" >Auto-send</text><rect x="1148" y="312" width="128" height="22" class="chip" /> <text x="1158" y="327" class="t chipText" >ON (per-thread)</text><text x="1148" y="346" class="t p ts" >Safety envelope: allowlisted intent, within hours, no DNC.</text><rect x="1148" y="368" width="170" height="30" class="ghostBtn" rx="8"/><text x="1160" y="388" class="t b tm" >Pause this thread</text><rect x="1148" y="404" width="170" height="30" class="ghostBtn" rx="8"/><text x="1160" y="424" class="t b tm" >Escalate to human</text><rect x="1134" y="468" width="292" height="210" class="subtle" rx="12"/><text x="1148" y="494" class="t b" >Audit</text><text x="1148" y="518" class="t mono ts" >11:04 inbound received</text><text x="1148" y="536" class="t mono ts" >11:05 reply generated (AUTO)</text><text x="1148" y="554" class="t mono ts" >11:05 typing sim started</text><rect x="1148" y="584" width="160" height="30" class="primaryBtn" rx="8"/><text x="1160" y="604" class="t primaryBtnText" >View audit log</text></svg>
